<?xml version="1.0" encoding="UTF-8"?>
<svg version="1.1" xmlns="http://www.w3.org/2000/svg" width="368" height="92">
<path d="M0 0 C121.44 0 242.88 0 368 0 C368 30.36 368 60.72 368 92 C246.56 92 125.12 92 0 92 C0 61.64 0 31.28 0 0 Z " fill="#FDFDFD" transform="translate(0,0)"/>
<path d="M0 0 C0.84766937 -0.00191345 1.69533875 -0.0038269 2.56869507 -0.00579834 C4.35211486 -0.00715382 6.13554472 -0.00350207 7.91894531 0.00488281 C10.64670921 0.0156182 13.37381856 0.00495232 16.1015625 -0.0078125 C17.83854312 -0.00649131 19.57552333 -0.00392976 21.3125 0 C22.12610992 -0.00404846 22.93971985 -0.00809692 23.77798462 -0.01226807 C27.65306634 0.01982817 30.74456677 0.0503799 34.0234375 2.265625 C34.0234375 2.925625 34.0234375 3.585625 34.0234375 4.265625 C34.6834375 4.265625 35.3434375 4.265625 36.0234375 4.265625 C36.0234375 4.925625 36.0234375 5.585625 36.0234375 6.265625 C36.6834375 6.265625 37.3434375 6.265625 38.0234375 6.265625 C38.82947693 9.10589118 39.1535092 11.63865806 39.16870117 14.58764648 C39.17508102 15.43209824 39.18146088 16.27654999 39.18803406 17.14659119 C39.18914688 18.05083328 39.1902597 18.95507538 39.19140625 19.88671875 C39.19639885 21.29208641 39.19639885 21.29208641 39.20149231 22.72584534 C39.20654981 24.70532745 39.208901 26.68481807 39.20874023 28.66430664 C39.21092689 31.68845689 39.22909558 34.71224237 39.24804688 37.73632812 C39.25098102 39.66145709 39.25296567 41.58658778 39.25390625 43.51171875 C39.26109177 44.41393661 39.26827728 45.31615448 39.27568054 46.24571228 C39.25353543 52.34663649 38.69830636 56.08173303 34.89868164 61.03613281 C31.27465831 63.84623565 28.4278909 63.98035562 24.01953125 63.9375 C22.87908104 63.95662445 22.87908104 63.95662445 21.71559143 63.97613525 C19.29699124 64.01233083 16.87978412 64.01514321 14.4609375 64.015625 C12.0390405 64.03728561 9.61735102 64.06580765 7.1955719 64.09796143 C5.69201052 64.11562915 4.18834081 64.12599474 2.68467712 64.12811279 C-0.67697094 64.14681404 -3.76224425 64.21864292 -6.9765625 65.265625 C-6.9765625 65.925625 -6.9765625 66.585625 -6.9765625 67.265625 C-8.62727646 68.29174449 -10.29626256 69.28870643 -11.9765625 70.265625 C-12.4715625 70.843125 -12.9665625 71.420625 -13.4765625 72.015625 C-13.9715625 72.428125 -14.4665625 72.840625 -14.9765625 73.265625 C-17.5703125 72.84375 -17.5703125 72.84375 -19.9765625 72.265625 C-20.0461441 64.1378318 -20.09941492 56.01016353 -20.13199902 47.88214588 C-20.14763961 44.10776544 -20.16884811 40.33358914 -20.20288086 36.55932617 C-20.23553226 32.91535632 -20.2534276 29.27158253 -20.26119423 25.62747765 C-20.26672742 24.23882652 -20.27753253 22.85018584 -20.29375267 21.46161842 C-20.31560106 19.51333755 -20.31678854 17.56485842 -20.31713867 15.61645508 C-20.32380051 14.5083699 -20.33046234 13.40028473 -20.33732605 12.25862122 C-19.9293955 8.8743143 -19.03439317 6.96421615 -16.9765625 4.265625 C-16.3165625 4.265625 -15.6565625 4.265625 -14.9765625 4.265625 C-14.9765625 3.605625 -14.9765625 2.945625 -14.9765625 2.265625 C-9.85099865 0.19898124 -5.43062807 -0.02715753 0 0 Z " fill="#333155" transform="translate(277.9765625,7.734375)"/>
<path d="M0 0 C0.804375 0.804375 1.60875 1.60875 2.4375 2.4375 C2.4375 3.0975 2.4375 3.7575 2.4375 4.4375 C3.0975 4.4375 3.7575 4.4375 4.4375 4.4375 C10.76967026 14.14682773 11.24156911 23.658644 8.94140625 34.8515625 C7.05138551 41.6838114 3.25386429 46.69497101 -2.4921875 50.82421875 C-10.0693741 54.89874362 -19.54127881 54.71302707 -27.71484375 52.63671875 C-30.1761335 51.72212184 -32.37546531 50.89066305 -34.5625 49.4375 C-35.0575 47.9525 -35.0575 47.9525 -35.5625 46.4375 C-36.4596875 46.004375 -36.4596875 46.004375 -37.375 45.5625 C-40.39464023 44.00954217 -41.72662368 42.2862736 -43.5625 39.4375 C-44.55308524 34.2594408 -44.74530382 29.18782463 -44.75 23.9375 C-44.76224609 23.21691406 -44.77449219 22.49632813 -44.78710938 21.75390625 C-44.81045994 13.14533259 -42.60651306 7.71811262 -36.71875 1.45703125 C-26.79587511 -7.83667585 -10.74998322 -8.5093544 0 0 Z " fill="#333155" transform="translate(241.5625,19.5625)"/>
<path d="M0 0 C2.10353495 -0.0810206 4.20795952 -0.13919907 6.3125 -0.1875 C7.48425781 -0.22230469 8.65601563 -0.25710938 9.86328125 -0.29296875 C13 0 13 0 14.78125 1.1171875 C16.4742115 3.73259597 17.26941418 6.33286407 18.1875 9.3125 C20.33376015 16.08455594 22.68412341 22.76606902 25.125 29.4375 C25.63003052 30.82159058 25.63003052 30.82159058 26.14526367 32.23364258 C27.62619779 36.28250547 29.12296061 40.32281346 30.66796875 44.34765625 C32.20394206 48.55919597 33.10932047 52.61511615 34 57 C30.04 57 26.08 57 22 57 C18 48.375 18 48.375 18 45 C10.74 45.33 3.48 45.66 -4 46 C-4.99 49.3 -5.98 52.6 -7 56 C-8 57 -8 57 -10.72265625 57.09765625 C-11.82480469 57.08605469 -12.92695313 57.07445312 -14.0625 57.0625 C-15.16722656 57.05347656 -16.27195312 57.04445312 -17.41015625 57.03515625 C-18.69212891 57.01775391 -18.69212891 57.01775391 -20 57 C-18.87439736 51.18438637 -17.2979528 46.06090998 -15.00390625 40.609375 C-13.95830746 37.89163185 -13.2132931 35.19699021 -12.5 32.375 C-11.42541394 28.19409687 -9.94243846 24.73375835 -7.8984375 20.953125 C-6.92453516 18.835946 -6.48650535 16.91302886 -6.0625 14.625 C-5.04285199 9.26483205 -2.60028578 4.7539576 0 0 Z " fill="#333054" transform="translate(33,15)"/>
<path d="M0 0 C3.77334236 2.762945 7.05917599 5.72820336 8.6484375 10.20703125 C8.6484375 11.52703125 8.6484375 12.84703125 8.6484375 14.20703125 C5.45556927 15.80346537 2.11423057 15.72073576 -1.3515625 15.20703125 C-3.8515625 13.33203125 -3.8515625 13.33203125 -5.3515625 11.20703125 C-5.3515625 10.54703125 -5.3515625 9.88703125 -5.3515625 9.20703125 C-13.1701273 7.75592212 -13.1701273 7.75592212 -20.3515625 10.20703125 C-21.43180908 12.60813342 -21.43180908 12.60813342 -21.3515625 15.20703125 C-19.09806139 18.58728292 -18.49162986 18.75615829 -14.7734375 19.85546875 C-13.85949219 20.1390625 -12.94554688 20.42265625 -12.00390625 20.71484375 C-10.08549563 21.28804316 -8.16623525 21.85840702 -6.24609375 22.42578125 C0.83008698 24.62902406 5.42578041 26.87304561 9.6484375 33.20703125 C10.33296967 38.27734508 10.61422443 43.46375164 7.7734375 47.89453125 C7.0721875 48.65765625 6.3709375 49.42078125 5.6484375 50.20703125 C4.9884375 50.20703125 4.3284375 50.20703125 3.6484375 50.20703125 C3.6484375 50.86703125 3.6484375 51.52703125 3.6484375 52.20703125 C-4.20108453 57.09117829 -12.43654647 57.10854973 -21.3515625 56.20703125 C-27.02088393 54.75673972 -31.98514428 52.09376738 -35.3515625 47.20703125 C-35.74165856 44.15812254 -35.6509437 41.26071951 -35.3515625 38.20703125 C-26.56113947 37.28531699 -26.56113947 37.28531699 -23.64453125 39.5078125 C-22.3515625 41.14453125 -22.3515625 41.14453125 -20.3515625 44.20703125 C-17.77147658 45.49707421 -15.79414676 45.41113349 -12.9140625 45.45703125 C-11.94597656 45.4828125 -10.97789063 45.50859375 -9.98046875 45.53515625 C-7.33582842 45.4194604 -7.33582842 45.4194604 -5.5234375 43.8828125 C-3.73010135 41.3183418 -4.02856262 39.2432301 -4.3515625 36.20703125 C-7.08323699 33.47535676 -9.53611859 33.32573299 -13.2890625 32.45703125 C-20.82177231 30.57748052 -29.30844774 28.30482375 -34.12109375 21.82421875 C-36.105668 17.60306082 -35.99011461 13.77231183 -35.3515625 9.20703125 C-32.85036291 3.68354882 -28.67139325 0.81499515 -23.3515625 -1.79296875 C-15.93807923 -4.25374681 -6.74155728 -4.0250226 0 0 Z " fill="#333055" transform="translate(107.3515625,16.79296875)"/>
<path d="M0 0 C3.63 0 7.26 0 11 0 C11 7.59 11 15.18 11 23 C11.99 23 12.98 23 14 23 C14.226875 22.2575 14.45375 21.515 14.6875 20.75 C16.25923147 17.45684836 18.14893889 16.22521843 21 14 C22.01656081 12.34338239 23.02065076 10.67888441 24 9 C24.66 9 25.32 9 26 9 C26.28875 8.401875 26.5775 7.80375 26.875 7.1875 C28 5 28 5 30 2 C30.66 2 31.32 2 32 2 C32 1.34 32 0.68 32 0 C35.96 0 39.92 0 44 0 C44.495 1.485 44.495 1.485 45 3 C41.41188683 7.85450606 37.13398421 11.98457047 32.75 16.125 C30.77556277 17.97977175 30.77556277 17.97977175 30 21 C29.34 21 28.68 21 28 21 C28 21.66 28 22.32 28 23 C27.34 23 26.68 23 26 23 C26.66 24.98 27.32 26.96 28 29 C28.66 29 29.32 29 30 29 C30 30.32 30 31.64 30 33 C30.86625 33.2784375 30.86625 33.2784375 31.75 33.5625 C35.14462336 35.73128715 36.20497313 38.40994626 38 42 C38 42.66 38 43.32 38 44 C38.66 44 39.32 44 40 44 C40.66 45.65 41.32 47.3 42 49 C42.66 49 43.32 49 44 49 C47 54.75 47 54.75 47 57 C44.91846065 57.13536022 42.83438794 57.23215465 40.75 57.3125 C39.58984375 57.37050781 38.4296875 57.42851563 37.234375 57.48828125 C34 57 34 57 31.73828125 54.70703125 C31.16464844 53.81371094 30.59101563 52.92039063 30 52 C29.54496094 51.36835937 29.08992188 50.73671875 28.62109375 50.0859375 C27.82875138 48.94057131 27.03709002 47.79473373 26.24609375 46.6484375 C25.03343377 44.95896506 25.03343377 44.95896506 23.484375 43.51953125 C21.04858488 41.02605137 19.66751209 38.0475221 18 35 C17.01 35 16.02 35 15 35 C14.690625 35.639375 14.38125 36.27875 14.0625 36.9375 C13 39 13 39 12 40 C11.76298761 42.85877909 11.57780818 45.69883297 11.4375 48.5625 C11.39431641 49.36880859 11.35113281 50.17511719 11.30664062 51.00585938 C11.20024738 53.00368805 11.09959112 55.0018207 11 57 C7.37 57 3.74 57 0 57 C0 38.19 0 19.38 0 0 Z " fill="#333155" transform="translate(124,15)"/>
<path d="M0 0 C1.2375 0.7425 1.2375 0.7425 2.5 1.5 C2.5 2.16 2.5 2.82 2.5 3.5 C3.16 3.5 3.82 3.5 4.5 3.5 C8.24263643 10.65982621 10.15481898 17.21849831 7.6640625 25.16796875 C5.37149888 30.37624248 3.06821606 33.85770453 -2.31640625 36.015625 C-7.45696115 37.15592698 -11.85703271 36.27118873 -16.5625 34.0625 C-17.201875 33.546875 -17.84125 33.03125 -18.5 32.5 C-18.5 31.84 -18.5 31.18 -18.5 30.5 C-19.16 30.5 -19.82 30.5 -20.5 30.5 C-23.43993129 22.99237885 -24.04978779 16.44703211 -22.5 8.5 C-21.44921875 6.1484375 -21.44921875 6.1484375 -20.5 4.5 C-19.84 4.5 -19.18 4.5 -18.5 4.5 C-18.273125 3.88125 -18.04625 3.2625 -17.8125 2.625 C-14.08045544 -3.41735786 -5.70471733 -2.44487886 0 0 Z " fill="#FCFCFC" transform="translate(231.5,26.5)"/>
<path d="M0 0 C1.81242052 -0.02687279 3.62495233 -0.04633715 5.4375 -0.0625 C6.44683594 -0.07410156 7.45617187 -0.08570313 8.49609375 -0.09765625 C11 0 11 0 12 1 C12.09365006 2.7492872 12.11744438 4.50236254 12.11352539 6.25415039 C12.11344986 7.37523697 12.11337433 8.49632355 12.11329651 9.65138245 C12.10813522 10.8711528 12.10297394 12.09092316 12.09765625 13.34765625 C12.0962413 14.58921982 12.09482635 15.83078339 12.09336853 17.10997009 C12.08870591 20.41605491 12.07971497 23.72207146 12.06866455 27.02813721 C12.05844827 30.3996115 12.05387045 33.77109283 12.04882812 37.14257812 C12.03777395 43.76173775 12.02101736 50.38086493 12 57 C10.02090602 57.02686553 8.04171029 57.04633375 6.0625 57.0625 C4.96035156 57.07410156 3.85820312 57.08570313 2.72265625 57.09765625 C0 57 0 57 -1 56 C-1.09874794 54.32274454 -1.12798901 52.64134088 -1.12939453 50.96118164 C-1.13254669 49.88659195 -1.13569885 48.81200226 -1.13894653 47.70484924 C-1.1369223 46.53510056 -1.13489807 45.36535187 -1.1328125 44.16015625 C-1.13376923 42.96772812 -1.13472595 41.77529999 -1.13571167 40.54673767 C-1.13639376 38.0188695 -1.13453746 35.49099959 -1.13037109 32.96313477 C-1.12502796 29.08280517 -1.13031273 25.20259157 -1.13671875 21.32226562 C-1.13605788 18.87239558 -1.13477654 16.4225256 -1.1328125 13.97265625 C-1.13483673 12.80493179 -1.13686096 11.63720734 -1.13894653 10.43409729 C-1.13421829 8.81748451 -1.13421829 8.81748451 -1.12939453 7.16821289 C-1.12859894 6.21636612 -1.12780334 5.26451935 -1.12698364 4.28382874 C-1 2 -1 2 0 0 Z " fill="#312E52" transform="translate(177,15)"/>
<path d="M0 0 C0.66 0.33 1.32 0.66 2 1 C2 1.66 2 2.32 2 3 C3.65 3.66 5.3 4.32 7 5 C8.42857143 13.42857143 8.42857143 13.42857143 6 18 C5.34 18 4.68 18 4 18 C3.7525 18.61875 3.505 19.2375 3.25 19.875 C2 22 2 22 -0.0625 22.9375 C-1.0215625 23.4634375 -1.0215625 23.4634375 -2 24 C-2.81171228 26.55519921 -2.81171228 26.55519921 -3 29 C-5.31 29 -7.62 29 -10 29 C-9.75 25.625 -9.75 25.625 -9 22 C-7.0625 20.8125 -7.0625 20.8125 -5 20 C-3.83333333 18.08333333 -3.83333333 18.08333333 -3 16 C-2.34 15.01 -1.68 14.02 -1 13 C-1.3121764 10.35367713 -1.3121764 10.35367713 -2 8 C-5.37436186 7.66619186 -5.37436186 7.66619186 -9 8 C-10.0260734 9.31337396 -11.02727325 10.64664105 -12 12 C-15.1875 12.25 -15.1875 12.25 -18 12 C-18.5058286 8.96502837 -18.59091219 6.87455005 -16.828125 4.265625 C-11.83430896 -0.72819104 -6.78893723 -0.88942959 0 0 Z " fill="#FCFCFD" transform="translate(293,20)"/>
<path d="M0 0 C0.66 0 1.32 0 2 0 C2.18175781 0.61746094 2.36351562 1.23492188 2.55078125 1.87109375 C4.25720447 7.62042737 6.06654726 13.32305366 8 19 C5.35541621 20.32229189 3.32238699 20.09677194 0.375 20.0625 C-0.62789062 20.05347656 -1.63078125 20.04445313 -2.6640625 20.03515625 C-3.43492188 20.02355469 -4.20578125 20.01195313 -5 20 C-6.75776249 14.72671252 -4.25090312 8.95056073 -2.12890625 3.9453125 C-1.46061269 2.60872539 -0.73761932 1.29961499 0 0 Z " fill="#FAFAFB" transform="translate(39,30)"/>
<path d="M0 0 C3.0625 0.1875 3.0625 0.1875 5.0625 2.1875 C4.7355244 4.80330479 4.24210932 6.82828137 3.0625 9.1875 C0.25887237 9.41482116 -1.39936517 9.52831872 -3.8125 8 C-4.9375 6.1875 -4.9375 6.1875 -4.6875 3.5625 C-3.63578571 0.23207143 -3.63578571 0.23207143 0 0 Z " fill="#FDFDFD" transform="translate(285.9375,53.8125)"/>
<path d="M0 0 C0.66 0.33 1.32 0.66 2 1 C1.21625 1.9075 0.4325 2.815 -0.375 3.75 C-1.93674027 5.6056633 -3.05701829 7.11720427 -4.125 9.3125 C-5 11 -5 11 -8 12 C-7.41463247 8.33939179 -5.916761 6.45464836 -3.4375 3.75 C-2.79683594 3.04359375 -2.15617188 2.3371875 -1.49609375 1.609375 C-0.75552734 0.81273438 -0.75552734 0.81273438 0 0 Z " fill="#2C294E" transform="translate(207,19)"/>
</svg>
